<?xml version="1.0" encoding="UTF-8" standalone="no"?>
<!-- Created with Inkscape (http://www.inkscape.org/) -->

<svg
   width="170mm"
   height="33.638256mm"
   viewBox="0 0 170 33.638256"
   version="1.1"
   id="svg1"
   xml:space="preserve"
   inkscape:version="1.4.4 (dcaf3e7, 2026-05-05)"
   sodipodi:docname="tack-bar-manga-corta.svg"
   xmlns:inkscape="http://www.inkscape.org/namespaces/inkscape"
   xmlns:sodipodi="http://sodipodi.sourceforge.net/DTD/sodipodi-0.dtd"
   xmlns="http://www.w3.org/2000/svg"
   xmlns:svg="http://www.w3.org/2000/svg"><sodipodi:namedview
     id="namedview1"
     pagecolor="#ffffff"
     bordercolor="#000000"
     borderopacity="0.25"
     inkscape:showpageshadow="2"
     inkscape:pageopacity="0.0"
     inkscape:pagecheckerboard="0"
     inkscape:deskcolor="#d1d1d1"
     inkscape:document-units="mm"
     inkscape:zoom="0.5"
     inkscape:cx="747"
     inkscape:cy="-2556"
     inkscape:window-width="2560"
     inkscape:window-height="1351"
     inkscape:window-x="1911"
     inkscape:window-y="-9"
     inkscape:window-maximized="1"
     inkscape:current-layer="layer1"><inkscape:page
       x="3.617014e-20"
       y="0"
       width="169.99998"
       height="33.638256"
       id="page2"
       margin="0"
       bleed="0" /></sodipodi:namedview><defs
     id="defs1" /><g
     inkscape:label="ROLY"
     inkscape:groupmode="layer"
     id="layer1"
     transform="translate(391.21865,-752.68463)"><g
       id="g153"
       inkscape:export-filename="tackbar-logo-claim.svg"
       inkscape:export-xdpi="300"
       inkscape:export-ydpi="300"
       transform="translate(4.6099491)"><g
         id="g138"
         inkscape:label="logo-opc-2"
         transform="matrix(1.0184338,0,0,1.0184338,-7.3584678,-105.6475)"><path
           d="m -357.38016,850.07703 h -8.63156 v 24.71285 h -6.83771 v -24.71285 h -8.58935 v -5.55036 h 24.05862 z m 17.7274,24.71285 h -6.31011 v -3.1023 h -0.0844 q -2.17372,3.6299 -6.43674,3.6299 -3.1445,0 -4.95945,-1.77274 -1.79385,-1.79385 -1.79385,-4.76952 0,-6.28901 7.44973,-7.25979 l 5.86693,-0.78085 q 0,-3.54548 -3.84094,-3.54548 -3.86204,0 -7.34421,2.30034 v -5.02277 q 1.39287,-0.71753 3.79873,-1.26624 2.42697,-0.5487 4.41075,-0.5487 9.24357,0 9.24357,9.22247 z m -6.2679,-8.77929 v -1.45618 l -3.92535,0.5065 q -3.25003,0.42208 -3.25003,2.93346 0,1.13962 0.78085,1.87826 0.80196,0.71754 2.15261,0.71754 1.87827,0 3.06009,-1.28735 1.18183,-1.30845 1.18183,-3.29223 z M -318,874.00903 q -2.25813,1.30845 -6.52115,1.30845 -4.98056,0 -8.06175,-3.01788 -3.08119,-3.01788 -3.08119,-7.7874 0,-5.50815 3.29223,-8.67376 3.31334,-3.18671 8.8426,-3.18671 3.81983,0 5.52926,1.01299 v 5.65589 q -2.0893,-1.5617 -4.66399,-1.5617 -2.87016,0 -4.55848,1.68832 -1.66722,1.66722 -1.66722,4.62179 0,2.87015 1.60391,4.51627 1.60391,1.62501 4.41075,1.62501 2.49027,0 4.87503,-1.5617 z m 26.0213,0.78085 h -7.99844 l -6.90102,-10.72086 h -0.0844 v 10.72086 h -6.66888 v -31.99375 h 6.66888 v 20.36541 h 0.0844 l 6.43673,-9.98221 h 7.91402 l -7.74518,10.15105 z"
           id="path133"
           style="font-weight:bold;font-size:43.2211px;font-family:'Segoe UI';-inkscape-font-specification:'Segoe UI, Bold';fill:#013663;stroke-width:1.30493;stroke-linecap:round"
           aria-label="Tack" /><path
           d="m -278.92537,875.29793 v -30.26321 h 11.01632 q 5.06497,0 7.78739,1.85716 2.72243,1.85716 2.72243,5.2338 0,2.44807 -1.66722,4.28413 -1.64612,1.83605 -4.22082,2.55359 v 0.0844 q 3.22892,0.40098 5.14939,2.38476 1.94158,1.98378 1.94158,4.83283 0,4.1575 -2.97567,6.60557 -2.97568,2.42696 -8.12507,2.42696 z m 6.81661,-25.24044 v 7.17537 h 2.99678 q 2.1104,0 3.31333,-1.01299 1.22404,-1.0341 1.22404,-2.82794 0,-3.33444 -4.98056,-3.33444 z m 0,12.24035 v 7.97733 h 3.69321 q 2.36365,0 3.69321,-1.09741 1.35066,-1.09741 1.35066,-2.99678 0,-1.81495 -1.32956,-2.84904 -1.30845,-1.0341 -3.6721,-1.0341 z m 38.21944,13.00009 h -6.31011 v -3.10229 h -0.0844 q -2.17371,3.62989 -6.43673,3.62989 -3.14451,0 -4.95946,-1.77274 -1.79384,-1.79384 -1.79384,-4.76951 0,-6.28901 7.44973,-7.2598 l 5.86693,-0.78085 q 0,-3.54548 -3.84094,-3.54548 -3.86204,0 -7.34421,2.30035 v -5.02277 q 1.39287,-0.71754 3.79873,-1.26624 2.42696,-0.54871 4.41075,-0.54871 9.24357,0 9.24357,9.22247 z m -6.2679,-8.77928 v -1.45618 l -3.92536,0.5065 q -3.25002,0.42208 -3.25002,2.93346 0,1.13962 0.78085,1.87826 0.80195,0.71754 2.15261,0.71754 1.87826,0 3.06009,-1.28735 1.18183,-1.30845 1.18183,-3.29223 z m 25.64142,-6.81661 q -1.20293,-0.65423 -2.80684,-0.65423 -2.17372,0 -3.39775,1.60391 -1.22404,1.5828 -1.22404,4.32633 v 10.31988 h -6.66888 v -21.61055 h 6.66888 v 4.00977 h 0.0844 q 1.5828,-4.38964 5.69809,-4.38964 1.05521,0 1.64612,0.25325 z"
           id="path134"
           style="font-weight:bold;font-size:43.2211px;font-family:'Segoe UI';-inkscape-font-specification:'Segoe UI, Bold';fill:#0383cc;stroke-width:1.30493;stroke-linecap:round"
           aria-label="Bar" /><path
           d="m -280.27608,874.78988 h -7.99843 l -8.29389,-11.4595 v 0 l 7.74518,-10.15105 h 7.99844 l -7.74519,10.15105 z"
           id="path135"
           style="font-weight:bold;font-size:43.2211px;font-family:'Segoe UI';-inkscape-font-specification:'Segoe UI, Bold';fill:#0383cc;fill-opacity:1;stroke-width:1.30493;stroke-linecap:round"
           aria-label="k"
           sodipodi:nodetypes="cccccccc" /></g></g></g></svg>
